<svg width="223" height="129" viewBox="0 0 223 129" fill="none" xmlns="http://www.w3.org/2000/svg">
<path d="M73.395 1.12722C73.229 1.60042 72.897 4.10162 72.648 6.73802C72.482 9.30682 72.067 12.5516 71.735 13.9036C71.071 16.8104 72.565 18.0948 76.466 17.7568C79.786 17.4864 81.363 14.85 79.786 12.3488C79.288 11.47 78.707 8.49562 78.624 5.72402C78.375 0.721618 78.375 0.654018 76.051 0.451218C74.723 0.316018 73.644 0.586418 73.395 1.12722Z" fill="#577399"/>
<path d="M90.825 1.12723C90.659 1.60043 90.327 4.10163 90.078 6.73803C89.912 9.30683 89.497 12.484 89.165 13.7008C88.418 16.54 89.746 17.892 93.398 17.892C96.552 17.892 98.378 15.9316 97.382 13.5656C97.05 12.822 96.552 9.57723 96.303 6.40003C95.805 0.72163 95.805 0.65403 93.481 0.45123C92.153 0.31603 91.074 0.58643 90.825 1.12723Z" fill="#577399"/>
<path d="M108.255 1.12723C108.089 1.60043 107.757 4.10163 107.508 6.73803C107.342 9.30683 106.927 12.484 106.595 13.7008C105.848 16.54 107.176 17.892 110.828 17.892C113.982 17.892 115.808 15.9316 114.812 13.5656C114.48 12.822 113.982 9.57723 113.733 6.40003C113.235 0.72163 113.235 0.65403 110.911 0.45123C109.583 0.31603 108.504 0.58643 108.255 1.12723Z" fill="#577399"/>
<path d="M125.685 1.12721C125.353 1.93841 125.187 4.03401 124.274 14.174C124.025 16.4048 124.357 16.9456 126.017 17.6216C129.752 19.1764 134.317 15.7288 132.159 13.0248C131.827 12.5516 131.329 9.57721 131.08 6.40001C130.665 0.721609 130.665 0.654009 128.341 0.451209C127.013 0.316009 125.934 0.586409 125.685 1.12721Z" fill="#577399"/>
<path d="M64.099 5.04806C63.103 5.38606 61.941 6.26486 61.443 7.00846C60.779 7.88726 60.53 21.0693 60.53 47.5009C60.53 86.1005 60.53 86.7089 62.273 88.4665L63.933 90.2241H101.615C137.388 90.2241 139.297 90.1565 141.123 88.9397C143.032 87.6553 143.115 87.3173 143.281 76.7717C143.447 70.6201 143.198 65.8881 142.783 65.8881C142.368 65.8881 140.874 66.4289 139.463 67.0373L136.89 68.2541V76.5013V84.8161H102.03H67.17V47.3657V9.84766L69.079 9.64486C70.573 9.50966 70.905 9.03646 70.905 7.07606C70.905 4.91286 70.656 4.71006 68.415 4.57486C67.087 4.50726 65.095 4.71006 64.099 5.04806Z" fill="#577399"/>
<path d="M81.031 4.77766C80.699 5.04806 80.45 6.33246 80.45 7.54926V9.84766L84.434 9.64486C88.335 9.44206 88.335 9.44206 88.335 7.07606C88.335 4.77766 88.252 4.71006 85.015 4.50726C83.106 4.37206 81.363 4.50726 81.031 4.77766Z" fill="#577399"/>
<path d="M98.461 4.77766C98.129 5.04806 97.88 6.33246 97.88 7.54926V9.84766L101.864 9.64486C105.765 9.44206 105.765 9.44206 105.765 7.07606C105.765 4.77766 105.682 4.71006 102.445 4.50726C100.536 4.37206 98.793 4.50726 98.461 4.77766Z" fill="#577399"/>
<path d="M115.891 4.84523C115.559 5.04803 115.31 6.26483 115.31 7.54923C115.31 9.78003 115.393 9.78003 119.045 9.78003C123.195 9.78003 124.191 8.90123 123.278 6.06203C122.863 4.64243 122.282 4.37203 119.543 4.37203C117.8 4.37203 116.14 4.57483 115.891 4.84523Z" fill="#577399"/>
<path d="M133.404 4.77759C132.989 5.04799 132.74 6.26479 132.74 7.48159C132.74 9.23919 133.072 9.71239 134.649 9.91519C136.475 10.118 136.475 10.2532 136.89 23.5704L137.305 37.0904L140.459 34.792L143.696 32.4936L143.364 19.7848C143.198 9.23919 142.866 6.94079 141.787 6.06199C140.293 4.84519 134.317 3.96639 133.404 4.77759Z" fill="#577399"/>
<path d="M183.619 11.4024L181.378 13.0248L185.777 17.6216C188.184 20.1904 191.421 23.5704 192.832 25.1252C194.243 26.68 195.571 27.9644 195.82 28.032C196.069 28.032 197.48 27.1532 198.974 26.0716C203.124 22.8944 202.709 20.6636 196.65 14.6472C192.168 10.3208 191.338 9.78004 188.765 9.78004C187.022 9.78004 185.113 10.3884 183.619 11.4024Z" fill="#577399"/>
<path d="M175.236 16.4724L173.327 17.6216L180.465 24.99C184.366 29.1136 187.935 32.4936 188.267 32.6288C188.599 32.6964 189.595 32.2232 190.342 31.4796C191.836 30.1276 191.67 29.9248 184.947 22.962C181.212 19.0412 177.892 15.6612 177.643 15.526C177.311 15.3908 176.232 15.7964 175.236 16.4724Z" fill="#577399"/>
<path d="M147.431 34.1836L125.27 48.312H100.287C83.9359 48.312 75.5529 48.5148 75.8849 48.988C76.2169 49.3936 85.0149 49.664 99.6229 49.664C112.322 49.664 122.78 49.8668 122.78 50.1372C122.697 50.4752 121.701 51.8948 120.456 53.382L118.132 56.086L97.2159 56.2888C84.1849 56.3564 76.2999 56.6944 76.2999 57.1C76.2999 57.5056 83.8529 57.776 96.6349 57.776C107.84 57.776 116.97 57.9788 116.97 58.2492C116.887 58.5872 115.891 60.0068 114.646 61.494L112.322 64.198L93.7299 64.536L75.0549 64.9416L93.1489 65.0768C103.026 65.1444 111.16 65.4148 111.16 65.6852C111.16 66.0232 110.247 67.4428 109.251 68.93L107.342 71.634L91.8209 71.8368C82.4419 71.9044 76.2999 72.2424 76.2999 72.648C76.2999 73.0536 85.8449 73.324 102.03 73.324C118.049 73.324 127.76 73.0536 127.76 72.648C127.76 72.31 123.693 71.9044 118.464 71.8368L109.085 71.634L123.444 68.254L137.803 64.9416L159.549 51.1512C171.501 43.58 181.959 36.8876 182.789 36.2116C184.283 35.0624 184.034 34.7244 177.145 27.6264C173.161 23.5704 169.841 20.1904 169.758 20.1228C169.758 20.1228 159.715 26.4096 147.431 34.1836ZM126.349 59.1956C128.092 61.0208 129.669 62.9812 129.918 63.4544C130.25 64.0628 128.009 64.874 122.365 66.1584C117.966 67.1724 114.148 67.916 113.982 67.7132C113.484 67.3752 121.95 55.748 122.697 55.8156C122.946 55.8156 124.606 57.3704 126.349 59.1956Z" fill="#577399"/>
<path d="M75.885 24.652C75.553 25.1252 84.351 25.328 101.532 25.328C118.464 25.328 127.76 25.0576 127.76 24.652C127.76 24.2464 118.63 23.976 102.113 23.976C85.845 23.976 76.217 24.2464 75.885 24.652Z" fill="#577399"/>
<path d="M75.885 32.7641C75.553 33.2373 84.351 33.4401 101.532 33.4401C118.464 33.4401 127.76 33.1697 127.76 32.7641C127.76 32.3585 118.63 32.0881 102.113 32.0881C85.845 32.0881 76.217 32.3585 75.885 32.7641Z" fill="#577399"/>
<path d="M76.2999 40.876C76.2999 41.2816 85.4299 41.552 102.03 41.552C118.63 41.552 127.76 41.2816 127.76 40.876C127.76 40.4704 118.63 40.2 102.03 40.2C85.4299 40.2 76.2999 40.4704 76.2999 40.876Z" fill="#577399"/>
<path d="M25.172 101.648C17.868 103.136 7.24398 109.76 3.17698 115.506C0.188977 119.833 0.105977 122.604 2.92798 125.308C5.50098 127.81 8.48898 128.012 13.137 126.12C16.291 124.768 21.52 120.509 21.52 119.224C21.52 118.413 21.686 118.346 15.959 120.779C13.635 121.793 10.149 122.875 8.23998 123.078C4.83698 123.551 4.75398 123.483 5.33498 121.928C7.24398 116.723 16.706 109.963 26.666 106.651C29.737 105.569 32.31 104.42 32.31 103.947C32.31 103.203 29.073 100.972 28.16 101.108C27.911 101.175 26.583 101.378 25.172 101.648Z" fill="#577399"/>
<path d="M133.404 104.217C131.91 106.042 129.503 108.882 128.175 110.639C125.851 113.681 125.519 113.816 122.78 113.478C120.456 113.14 119.211 113.478 116.389 115.168C114.397 116.318 111.99 118.413 110.911 119.833C106.678 125.241 103.856 125.444 107.508 120.036C109.749 116.858 109.832 116.52 108.504 115.506C107.342 114.56 106.678 114.492 104.437 115.168C102.113 115.844 101.615 115.777 100.619 114.56C98.627 112.329 96.801 113.005 92.485 117.602C86.343 124.227 81.861 126.052 86.343 120.036C88.418 117.196 88.086 116.453 83.77 114.628C77.96 112.194 75.968 113.073 66.091 122.064C63.269 124.632 62.19 124.227 64.597 121.455C67.917 117.67 66.008 114.628 61.775 116.858C59.119 118.278 59.036 118.21 59.451 116.385C59.7 115.506 59.285 114.425 58.538 113.952C57.542 113.276 56.878 113.343 54.803 114.29C52.479 115.439 52.23 115.439 50.736 114.357C48.412 112.6 47.582 112.87 43.847 116.723C38.95 121.793 37.539 124.362 38.95 125.714C40.693 127.404 42.768 126.863 45.009 124.159C47.25 121.59 53.89 115.98 53.89 116.723C53.89 116.926 52.562 118.684 50.985 120.644C48.661 123.416 48.246 124.362 48.91 125.444C50.238 127.404 51.815 126.998 55.135 123.821C56.795 122.266 58.04 121.455 57.791 122.064C57.21 123.551 59.368 126.052 61.194 126.052C61.941 126.052 63.684 125.444 64.929 124.768C67.253 123.551 67.336 123.551 69.411 125.106C72.067 127.066 72.98 127.134 75.719 125.376L77.877 123.956L78.79 125.376C79.869 127.066 80.948 127.066 84.683 125.444C87.588 124.159 87.671 124.159 88.584 125.444C89.912 127.134 92.651 127.066 93.813 125.308C95.058 123.416 101.2 117.94 102.113 117.94C102.528 117.94 101.864 119.022 100.785 120.374C98.378 123.28 98.378 123.348 99.789 124.97C101.283 126.66 104.769 126.525 107.508 124.768L109.666 123.348L111.326 125.038C113.401 127.201 115.393 127.201 118.464 125.038C120.871 123.416 120.954 123.416 121.369 124.7C121.95 126.458 125.519 126.458 128.59 124.7L130.831 123.416L132.74 125.038C135.23 127.134 136.143 127.134 139.297 124.97C141.704 123.348 141.87 123.348 141.87 124.565C141.87 126.593 144.194 126.931 147.846 125.444L151.083 124.159L149.755 125.849C148.012 127.945 148.51 128.35 151.996 127.81C154.154 127.472 155.565 126.458 158.802 122.672C162.288 118.684 163.035 118.143 163.865 119.089C166.355 121.793 177.062 117.129 180.797 111.721C183.785 107.394 182.789 105.434 176.73 102.865C171.999 100.972 170.09 100.567 170.09 101.716C170.09 102.054 168.596 102.595 166.687 102.798C163.367 103.271 163.284 103.271 163.699 105.704C163.948 107.868 163.367 108.949 158.387 114.695C152.909 120.914 148.759 124.497 147.763 123.686C147.514 123.483 148.261 121.928 149.34 120.306C151 117.872 151.166 117.196 150.253 116.318C149.589 115.709 148.676 115.236 148.095 115.236C147.514 115.236 146.601 114.763 146.02 114.222C144.609 112.87 142.451 112.938 138.55 114.56C135.396 115.844 131.08 119.698 131.08 121.185C131.08 121.928 127.843 123.686 127.345 123.213C126.764 122.74 130.914 115.98 134.732 111.248C140.542 103.947 140.542 103.812 138.882 102.324C138.135 101.648 137.222 101.04 136.807 101.04C136.475 101.04 134.981 102.46 133.404 104.217ZM178.722 106.651C180.133 107.462 180.05 107.665 178.058 109.625C175.983 111.586 166.106 116.25 165.359 115.642C165.193 115.506 166.687 113.208 168.762 110.572C171.999 106.516 172.912 105.772 174.904 105.772C176.232 105.772 177.892 106.178 178.722 106.651ZM122.116 119.089C120.207 122.131 115.31 124.903 115.31 122.942C115.31 121.726 122.531 115.506 123.278 116.115C123.527 116.318 123.029 117.602 122.116 119.089ZM80.533 118.548C78.458 120.914 73.81 124.227 73.146 123.754C72.565 123.213 75.387 119.833 77.877 118.143C81.114 115.912 82.608 116.182 80.533 118.548ZM143.696 118.751C142.7 119.968 140.791 121.726 139.463 122.604C136.973 124.159 136.89 124.159 136.89 122.807C136.89 121.455 142.783 116.588 144.443 116.588C144.941 116.588 144.609 117.602 143.696 118.751Z" fill="#577399"/>
<path d="M185.943 111.18C176.647 122.469 175.817 124.092 177.975 126.052C179.967 127.81 181.71 127.742 185.279 125.782C188.184 124.159 188.267 124.159 189.678 125.444C191.67 127.269 193.662 127.066 196.982 124.7C199.804 122.604 199.887 122.604 200.136 124.159C200.302 125.376 200.966 125.782 203.207 125.917C205.531 126.12 206.444 125.714 209.681 123.01C212.254 120.779 213.665 120.036 214.246 120.509C215.574 121.59 214.412 123.213 211.175 124.768C208.104 126.255 207.855 127.134 210.179 128.35C211.258 128.891 212.337 128.756 214.744 127.742C218.313 126.187 219.309 123.416 216.902 121.252C215.242 119.765 216.155 118.548 219.89 117.264C222.546 116.385 223.044 115.371 221.384 114.019C218.728 111.856 212.42 114.357 212.42 117.602C212.42 119.224 207.44 124.024 205.78 124.024C204.535 124.024 204.701 123.551 207.191 120.036C208.436 118.143 209.183 116.318 208.851 115.709C208.021 113.884 205.199 114.425 203.207 116.723C200.8 119.63 196.484 123.348 195.654 123.348C195.239 123.348 196.235 121.726 197.895 119.833C201.049 115.912 201.547 114.222 199.472 113.614C196.982 112.802 196.152 113.276 192.5 117.332C187.686 122.74 182.54 126.255 182.54 124.092C182.54 123.754 185.943 119.36 190.01 114.222C194.16 109.084 197.48 104.352 197.48 103.676C197.48 103 196.733 102.122 195.82 101.716C194.409 101.108 193.413 102.054 185.943 111.18Z" fill="#577399"/>
<path d="M28.492 114.695C22.765 118.008 20.773 122.74 24.01 125.376C28.824 129.297 38.12 124.024 38.12 117.399C38.12 115.98 37.456 114.966 36.294 114.29C33.721 112.802 31.48 112.938 28.492 114.695ZM36.46 117.332C36.46 118.143 35.049 119.968 33.223 121.388C28.326 125.376 26.5 124.7 29.903 120.238C31.563 118.008 34.468 115.912 35.796 115.912C36.211 115.912 36.46 116.588 36.46 117.332Z" fill="#577399"/>
</svg>
